<svg xmlns="http://www.w3.org/2000/svg" viewBox="0 0 45.38 46.39"><defs><style>.cls-1{fill:#fff;}</style></defs><g id="圖層_7" data-name="圖層 7"><path class="cls-1" d="M8.2,22.76h0v9.83a3.87,3.87,0,0,1-3.87,3.87h0V22.76c0-8.23,0-17.59,12.91-17.79H28.62c10.43.19,12.4,6.38,12.77,13.1H37.52c-.31-5.63-1.82-8.68-9.41-8.68H17.67C8.2,9.39,8.2,14.14,8.2,22.76Z"/><path class="cls-1" d="M28.07,22.33h3.87V32.59A3.74,3.74,0,0,1,28.07,29Z"/><path class="cls-1" d="M41.47,22.33v2.22c0,8.27,0,17.62-13.36,17.62H4.32A4.38,4.38,0,0,1,8.7,37.79H28.11c9.48,0,9.48-4.7,9.48-13.25h0v-2.2Z"/></g></svg>