<svg xmlns="http://www.w3.org/2000/svg" xmlns:xlink="http://www.w3.org/1999/xlink" viewBox="0 0 45.38 46.39"><defs><style>.cls-1{fill:url(#未命名漸層_110);}.cls-2{fill:url(#未命名漸層_110-2);}.cls-3{fill:url(#未命名漸層_110-3);}</style><linearGradient id="未命名漸層_110" x1="14.59" y1="5.44" x2="28.52" y2="39.22" gradientUnits="userSpaceOnUse"><stop offset="0" stop-color="#4e98c6"/><stop offset="0.45" stop-color="#398aca"/><stop offset="0.5" stop-color="#4993cd"/><stop offset="0.85" stop-color="#afc9e0"/><stop offset="1" stop-color="#d8dfe7"/></linearGradient><linearGradient id="未命名漸層_110-2" x1="20.51" y1="2.95" x2="33.63" y2="34.79" xlink:href="#未命名漸層_110"/><linearGradient id="未命名漸層_110-3" x1="12.23" y1="6.36" x2="25.35" y2="38.21" xlink:href="#未命名漸層_110"/></defs><g id="圖層_7" data-name="圖層 7"><path class="cls-1" d="M8.2,22.76h0v9.83a3.87,3.87,0,0,1-3.87,3.87h0V22.76c0-8.23,0-17.59,12.91-17.79H28.62c10.43.19,12.4,6.38,12.77,13.1H37.52c-.31-5.63-1.82-8.68-9.41-8.68H17.67C8.2,9.39,8.2,14.14,8.2,22.76Z"/><path class="cls-2" d="M28.07,22.33h3.87V32.59A3.74,3.74,0,0,1,28.07,29Z"/><path class="cls-3" d="M41.47,22.33v2.22c0,8.27,0,17.62-13.36,17.62H4.32A4.38,4.38,0,0,1,8.7,37.79H28.11c9.48,0,9.48-4.7,9.48-13.25h0v-2.2Z"/></g></svg>